<svg xmlns="http://www.w3.org/2000/svg" viewBox="0 0 800 600" preserveAspectRatio="xMidYMid slice">
  <defs>
    <linearGradient id="bg2" x1="0" y1="0" x2="1" y2="1">
      <stop offset="0" stop-color="#16242c"/>
      <stop offset="1" stop-color="#485f6c"/>
    </linearGradient>
  </defs>
  <rect width="800" height="600" fill="url(#bg2)"/>
  <circle cx="160" cy="130" r="90" fill="#679ace" opacity="0.18"/>
  <g stroke="#a8c6e4" stroke-width="6" fill="none" opacity="0.85">
    <!-- pumpjack -->
    <path d="M150 460 L230 290 L310 460 M180 400 H282 M205 348 H257"/>
    <path d="M110 300 L350 260" stroke-width="8"/>
    <path d="M350 260 L390 320 M390 320 V420 M360 420 H420" />
    <circle cx="110" cy="300" r="26"/>
    <path d="M96 322 A60 60 0 0 0 150 350" opacity="0.5"/>
    <!-- derrick -->
    <path d="M520 460 L590 200 L660 460 M535 400 H645 M550 340 H630 M565 280 H615 M520 460 L660 340 M660 460 L520 340" opacity="0.9"/>
    <!-- ground -->
    <path d="M70 460 H730" stroke-width="8"/>
    <path d="M70 500 H300 M380 500 H730" opacity="0.35"/>
  </g>
  <g font-family="Helvetica, Arial, sans-serif" text-anchor="middle">
    <text x="400" y="540" font-size="24" fill="#a8c6e4" letter-spacing="4">OIL AND GAS MINING</text>
    <text x="400" y="572" font-size="15" fill="#a8c6e4" opacity="0.6">Placeholder — replace with images/oil-gas-mining.jpg</text>
  </g>
</svg>
