<svg xmlns="http://www.w3.org/2000/svg" viewBox="0 0 800 600" preserveAspectRatio="xMidYMid slice">
  <defs>
    <linearGradient id="bg4" x1="0" y1="0" x2="1" y2="1">
      <stop offset="0" stop-color="#485f6c"/>
      <stop offset="1" stop-color="#211d9c"/>
    </linearGradient>
  </defs>
  <rect width="800" height="600" fill="url(#bg4)"/>
  <circle cx="150" cy="120" r="85" fill="#679ace" opacity="0.18"/>
  <g stroke="#a8c6e4" stroke-width="6" fill="none" opacity="0.85">
    <!-- distillation columns -->
    <rect x="180" y="160" width="56" height="300" rx="28"/>
    <rect x="300" y="220" width="56" height="240" rx="28"/>
    <path d="M208 160 V120 M328 220 V180"/>
    <circle cx="208" cy="108" r="9" opacity="0.7"/>
    <!-- piping -->
    <path d="M236 260 H300 M236 340 H300 M356 300 H470 M356 400 H470"/>
    <!-- spherical tank -->
    <circle cx="530" cy="380" r="62"/>
    <path d="M495 430 L480 460 M565 430 L580 460 M530 442 V460"/>
    <!-- storage tank -->
    <rect x="630" y="350" width="120" height="110" rx="12"/>
    <path d="M630 385 H750"/>
    <!-- ground -->
    <path d="M120 460 H750" stroke-width="8"/>
  </g>
  <g font-family="Helvetica, Arial, sans-serif" text-anchor="middle">
    <text x="400" y="535" font-size="24" fill="#a8c6e4" letter-spacing="4">REFINERY &amp; PETROCHEMICAL</text>
    <text x="400" y="567" font-size="15" fill="#a8c6e4" opacity="0.6">Placeholder — replace with images/refinery-petrochemical.jpg</text>
  </g>
</svg>
