<svg xmlns="http://www.w3.org/2000/svg" viewBox="-62 -59 1410 1356">
  <g transform="translate(643.0 618.9) scale(1 0.9609) rotate(45)">
    <rect x="-480.0" y="-480.0" width="960.0" height="960.0" rx="210.8" fill="#FFFFFF"/>
  </g>
  <path fill="#1814A0" d="M 983.3000000000001,381.0 C 997.1,382.69999999999993 997.1,382.69999999999993 1033.8,417.0 C 1042.4,425.0 1059.5,441.4 1071.9,453.4 C 1084.3,465.4 1098.6000000000001,478.5 1103.5,482.5 C 1120.9,496.4 1127.8,506.0 1124.9,512.3 C 1122.8,516.9 1121.3,517.0 1067.0,517.3 C 1009.2,517.5 1011.1,517.3 1006.6,525.0 C 1003.4000000000001,530.4 1003.0,553.5 1003.5,703.5 C 1004.0,844.5999999999999 1004.0,843.0 999.6,847.8 C 994.3000000000001,853.7 996.7,853.5 932.2,853.8 C 849.7,854.2 858.0,860.5 858.0,796.8 C 858.0,764.5999999999999 857.5,747.2 856.4000000000001,733.0 C 854.6,711.9 855.0,649.3 856.9000000000001,632.0 C 857.4000000000001,627.3 857.9000000000001,604.3 857.9000000000001,580.9 C 858.0,512.9 862.7,517.5999999999999 794.0,517.3 C 765.4000000000001,517.1999999999999 742.4000000000001,517.5 738.0,518.0999999999999 C 733.9000000000001,518.5999999999999 725.1,519.0999999999999 718.5,519.0999999999999 C 701.2,519.0999999999999 697.6,521.5999999999999 712.0,523.5 C 718.3000000000001,524.3 725.7,527.6999999999999 731.5,532.4 C 738.2,537.9 743.3000000000001,540.6999999999999 755.0,545.4 C 789.0,559.0999999999999 820.9000000000001,590.1999999999999 830.0,618.5 C 831.2,622.3 834.4000000000001,630.3 837.2,636.3 C 844.8000000000001,652.6 846.4000000000001,666.8 844.7,703.1 C 843.9000000000001,720.9 843.0,725.1999999999999 837.2,736.5 C 835.6,739.8 832.4000000000001,748.4 830.1,755.5 C 820.2,786.9 788.7,821.7 762.5,830.0 C 760.3000000000001,830.7 754.2,833.4 749.0,836.0999999999999 C 737.9000000000001,841.5999999999999 736.8000000000001,842.0 714.5,845.9 C 678.9000000000001,852.2 668.2,852.2 662.1,846.0999999999999 C 656.0,840.0 655.9000000000001,839.0999999999999 656.2,785.0 C 656.6,725.6 656.1,727.1999999999999 674.3000000000001,722.1 C 702.3000000000001,714.4 713.7,683.1999999999999 695.1,665.1 C 680.5,650.9 664.0,650.6999999999999 649.6,664.5 C 637.9000000000001,675.6999999999999 638.5,670.3 638.4000000000001,760.5 C 638.3000000000001,813.4 637.9000000000001,843.3 637.1,850.9 C 636.3000000000001,858.3 636.0,880.2 636.1,913.4 C 636.2,979.4 635.6,982.0999999999999 618.6,987.3 C 610.4,989.7 499.40000000000003,989.0 494.5,986.4 C 488.3,983.0999999999999 486.5,979.2 486.5,968.5 C 486.5,963.5 486.6,933.5999999999999 486.6,902.0 C 486.70000000000005,725.3 487.8,683.5 492.90000000000003,662.0 C 501.1,626.8 501.0,627.0999999999999 509.1,611.0 C 524.5,580.3 545.8000000000001,556.3 568.2,544.4 C 573.2,541.6999999999999 580.7,536.9 584.9,533.6999999999999 C 589.1,530.4 595.3000000000001,526.5 598.8000000000001,525.0 C 602.2,523.4 605.0,521.6999999999999 605.0,521.1999999999999 C 605.0,518.4 586.3000000000001,517.0999999999999 547.5,517.0999999999999 C 500.6,517.1999999999999 491.8,515.8 485.3,507.29999999999995 C 482.0,502.9 481.1,399.5999999999999 484.3,393.4 C 487.5,387.29999999999995 493.40000000000003,383.29999999999995 502.0,381.4 C 509.20000000000005,379.9 971.3000000000001,379.4 983.3000000000001,381.0 M 455.6,381.9 C 468.40000000000003,387.69999999999993 468.70000000000005,389.69999999999993 468.1,452.5999999999999 C 467.3,522.4 471.70000000000005,516.4 421.6,516.6999999999999 C 388.1,516.9 387.3,516.9 378.6,519.5 C 347.90000000000003,528.5 325.0,549.0 312.20000000000005,579.1999999999999 C 304.1,598.1999999999999 303.6,601.0 304.3,620.0 C 305.2,641.6999999999999 306.2,646.1 313.20000000000005,659.8 C 326.40000000000003,685.5 336.6,695.4 364.0,708.6999999999999 C 388.3,720.6 386.3,720.1 422.0,720.9 C 468.5,721.8 466.5,718.0 465.3,805.0 C 464.6,855.2 466.20000000000005,853.5999999999999 416.6,853.8 C 326.90000000000003,854.3 269.1,835.0999999999999 221.70000000000002,789.0999999999999 C 185.70000000000002,754.0999999999999 168.4,722.3 153.9,664.1 C 149.20000000000002,645.1999999999999 148.6,591.9 152.9,573.5 C 166.8,514.0999999999999 181.8,486.29999999999995 221.5,446.5 C 254.4,413.5 307.8,388.4 351.0,385.5 C 356.20000000000005,385.19999999999993 370.90000000000003,384.0 383.5,383.0 C 424.5,379.5 449.40000000000003,379.0999999999999 455.6,381.9"/>
</svg>